<svg width="30" height="30" viewBox="0 0 30 30" fill="none" xmlns="http://www.w3.org/2000/svg">
<path d="M18.5799 5.69692C19.3372 4.93999 19.8961 4.11093 20.2567 3.20941C20.6053 2.3079 20.7796 1.49085 20.7796 0.757316C20.7796 0.709578 20.7765 0.648801 20.7705 0.577003C20.7642 0.505205 20.7615 0.445464 20.7615 0.396689C20.7495 0.360627 20.7345 0.294503 20.7165 0.19799C20.6985 0.102187 20.6835 0.0360627 20.6714 0C18.5559 0.49282 17.0536 1.38233 16.1642 2.66847C15.2627 3.96635 14.7939 5.51093 14.7578 7.3019C15.5628 7.22945 16.1878 7.12797 16.633 6.99572C17.282 6.77875 17.9308 6.34632 18.5799 5.69692Z" fill="white"/>
<path d="M24.7095 19.6336C23.8801 18.4442 23.4654 17.104 23.4654 15.6129C23.4654 14.2549 23.8557 13.0111 24.6373 11.8809C25.058 11.2682 25.7432 10.559 26.6927 9.7533C26.0677 8.98436 25.4427 8.38368 24.8176 7.95028C23.6877 7.16994 22.4076 6.77832 20.9775 6.77832C20.124 6.77832 19.0843 6.98335 17.8582 7.39171C16.6802 7.80073 15.8208 8.0044 15.2802 8.0044C14.8716 8.0044 14.0422 7.82408 12.7921 7.46351C11.53 7.10288 10.4665 6.92257 9.60102 6.92257C7.53355 6.92257 5.82671 7.78802 4.48077 9.51925C3.1225 11.2742 2.44336 13.5216 2.44336 16.2619C2.44336 19.1705 3.32681 22.1932 5.09383 25.3308C6.88453 28.4437 8.69351 30 10.5206 30C11.1336 30 11.9266 29.7956 12.9002 29.3873C13.8739 28.9906 14.727 28.7923 15.4602 28.7923C16.2415 28.7923 17.1487 28.9846 18.1828 29.3689C19.2763 29.7536 20.1177 29.9456 20.7067 29.9456C22.2449 29.9456 23.7896 28.7679 25.3401 26.4123C26.3498 24.9101 27.0891 23.4073 27.5579 21.9051C26.4882 21.5809 25.5388 20.8236 24.7095 19.6336Z" fill="white"/>
</svg>
