<svg width="24" height="25" viewBox="0 0 24 25" fill="none" xmlns="http://www.w3.org/2000/svg">
<path d="M19.744 13.2453C19.9315 13.0577 20.0369 12.8034 20.0369 12.5382C20.0369 12.2729 19.9315 12.0186 19.744 11.8311L14.1225 6.13885C13.935 5.95131 13.6806 5.84596 13.4154 5.84596C13.1502 5.84596 12.8958 5.95131 12.7083 6.13885C12.5207 6.32638 12.4154 6.58074 12.4154 6.84595C12.4154 7.11117 12.5207 7.36553 12.7083 7.55306L16.6398 11.4846L4.9301 11.4987C4.79809 11.4982 4.66728 11.5238 4.54521 11.574C4.42315 11.6243 4.31224 11.6983 4.21889 11.7916C4.12555 11.8849 4.05161 11.9959 4.00134 12.1179C3.95107 12.24 3.92547 12.3708 3.92601 12.5028C3.92547 12.6348 3.95107 12.7656 4.00134 12.8877C4.05161 13.0098 4.12555 13.1207 4.21889 13.214C4.31224 13.3074 4.42315 13.3813 4.54521 13.4316C4.66728 13.4818 4.79809 13.5074 4.9301 13.5069L16.6539 13.5069L12.7083 17.4526C12.5207 17.6401 12.4154 17.8944 12.4154 18.1597C12.4154 18.4249 12.5207 18.6792 12.7083 18.8668C12.8958 19.0543 13.1502 19.1597 13.4154 19.1597C13.6806 19.1597 13.935 19.0543 14.1225 18.8668L19.744 13.2453Z" fill="white"/>
</svg>
