<svg width="18" height="14" viewBox="0 0 18 14" fill="none" xmlns="http://www.w3.org/2000/svg">
<path d="M1.25015 6.2604C1.06261 6.44794 0.957256 6.7023 0.957256 6.96751C0.957256 7.23273 1.06261 7.48708 1.25015 7.67462L6.87165 13.3668C7.05919 13.5544 7.31354 13.6597 7.57876 13.6597C7.84397 13.6597 8.09833 13.5544 8.28586 13.3668C8.4734 13.1793 8.57876 12.9249 8.57876 12.6597C8.57876 12.3945 8.4734 12.1402 8.28586 11.9526L4.35435 8.0211L16.064 8.00696C16.1961 8.0075 16.3269 7.9819 16.4489 7.93163C16.571 7.88136 16.6819 7.80742 16.7752 7.71407C16.8686 7.62073 16.9425 7.50982 16.9928 7.38776C17.0431 7.26569 17.0687 7.13488 17.0681 7.00287C17.0687 6.87086 17.0431 6.74004 16.9928 6.61798C16.9425 6.49591 16.8686 6.38501 16.7752 6.29166C16.6819 6.19831 16.571 6.12437 16.4489 6.0741C16.3269 6.02384 16.196 5.99824 16.064 5.99878L4.34021 5.99878L8.28586 2.05312C8.4734 1.86558 8.57876 1.61123 8.57876 1.34601C8.57876 1.0808 8.4734 0.826443 8.28586 0.638906C8.09833 0.45137 7.84397 0.346013 7.57876 0.346013C7.31354 0.346013 7.05919 0.451369 6.87165 0.638906L1.25015 6.2604Z" fill="#16181D"/>
</svg>
