<svg width="18" height="14" viewBox="0 0 18 14" fill="none" xmlns="http://www.w3.org/2000/svg">
<path d="M16.744 7.74533C16.9315 7.5578 17.0369 7.30344 17.0369 7.03823C17.0369 6.77301 16.9315 6.51866 16.744 6.33112L11.1225 0.638909C10.935 0.451373 10.6806 0.346016 10.4154 0.346016C10.1502 0.346016 9.89581 0.451373 9.70828 0.638909C9.52074 0.826446 9.41538 1.0808 9.41538 1.34602C9.41538 1.61123 9.52074 1.86559 9.70828 2.05312L13.6398 5.98464L1.9301 5.99878C1.79809 5.99824 1.66728 6.02384 1.54521 6.07411C1.42315 6.12438 1.31224 6.19832 1.21889 6.29166C1.12555 6.38501 1.05161 6.49592 1.00134 6.61798C0.95107 6.74005 0.925469 6.87086 0.92601 7.00287C0.925469 7.13488 0.95107 7.26569 1.00134 7.38776C1.05161 7.50983 1.12555 7.62073 1.21889 7.71408C1.31224 7.80742 1.42315 7.88136 1.54521 7.93163C1.66728 7.9819 1.79809 8.0075 1.9301 8.00696L13.6539 8.00696L9.70828 11.9526C9.52074 12.1402 9.41538 12.3945 9.41538 12.6597C9.41538 12.9249 9.52074 13.1793 9.70828 13.3668C9.89581 13.5544 10.1502 13.6597 10.4154 13.6597C10.6806 13.6597 10.935 13.5544 11.1225 13.3668L16.744 7.74533Z" fill="#16181D"/>
</svg>
