<svg width="345" height="331" viewBox="0 0 345 331" xmlns="http://www.w3.org/2000/svg">
<path clip-rule="evenodd" d="M172.5 154C224.139 154 266 112.139 266 60.5C266 46.1798 262.781 32.6115 257.026 20.4794C253.609 13.2743 258.057 3.95228 266.018 3.49888L309.067 1.04734C328.573 -0.0634794 345 15.4548 345 34.9923V296.182C345 316.025 328.078 331.652 308.298 330.075L175.202 319.464C173.404 319.32 171.596 319.32 169.798 319.464L36.7022 330.075C16.922 331.652 0 316.025 0 296.182V34.9924C0 15.4548 16.4272 -0.0634817 35.9331 1.04734L78.9818 3.49888C86.9434 3.95227 91.3911 13.2743 87.9737 20.4794C82.2193 32.6115 79 46.1798 79 60.5C79 112.139 120.861 154 172.5 154Z" fill="#F7F7F8"/>
</svg>
